<?xml version="1.0" encoding="UTF-8"?>
<svg width="113px" height="25px" viewBox="0 0 113 25" version="1.1" xmlns="http://www.w3.org/2000/svg" xmlns:xlink="http://www.w3.org/1999/xlink">
    <title>başarılı</title>
    <g id="Seller" stroke="none" stroke-width="1" fill="none" fill-rule="evenodd">
        <g id="Assets" transform="translate(-214.000000, -96.000000)" fill-rule="nonzero">
            <g id="başarılı" transform="translate(214.000000, 96.000000)">
                <path d="M108,2.5 L11,2.5 C8.51471863,2.5 6.5,4.51471863 6.5,7 L6.5,18 C6.5,20.4852814 8.51471863,22.5 11,22.5 L108,22.5 C110.485281,22.5 112.5,20.4852814 112.5,18 L112.5,7 C112.5,4.51471863 110.485281,2.5 108,2.5 Z" id="Rectangle" fill="#F27A1A"></path>
                <g id="hızlı-satıcı">
                    <path d="M11,3.5 L108,3.5 C109.932997,3.5 111.5,5.06700338 111.5,7 L111.5,18 C111.5,19.9329966 109.932997,21.5 108,21.5 L11,21.5 C9.06700338,21.5 7.5,19.9329966 7.5,18 L7.5,7 C7.5,5.06700338 9.06700338,3.5 11,3.5 Z" id="Path" fill="#FFFFFF"></path>
                    <g id="Hızlı-Satıcı" transform="translate(28.000000, 7.000000)" fill="#F27A1A">
                        <path d="M3.15274589,9.84884337 C3.65495321,9.84884337 4.11995997,9.79536759 4.5477662,9.68841603 C4.97557243,9.58146448 5.34525281,9.41638707 5.65680735,9.19318382 C5.96836188,8.96998058 6.21249043,8.69097651 6.38919301,8.35617164 C6.56589558,8.02136677 6.65424687,7.62611101 6.65424687,7.17040438 C6.65424687,6.55659544 6.48916946,6.07066337 6.15901466,5.71260816 C5.82885985,5.35455295 5.41267879,5.11972453 4.91047148,5.0081229 L4.91047148,5.0081229 L4.91047148,4.95232209 C5.3103773,4.81282006 5.62193184,4.55706634 5.84513509,4.18506092 C6.06833834,3.81305551 6.17993996,3.40849962 6.17993996,2.97139325 C6.17993996,2.55288716 6.09856378,2.19948202 5.93581141,1.91117782 C5.77305904,1.62287362 5.54520572,1.39269527 5.25225146,1.22064277 C4.95929719,1.04859026 4.61519218,0.923038437 4.21993643,0.843987286 C3.82468068,0.764936135 3.38989935,0.72541056 2.91559244,0.72541056 L2.91559244,0.72541056 L0,0.72541056 L0,9.84884337 L3.15274589,9.84884337 Z M2.77609041,4.49196539 L1.61822356,4.49196539 L1.61822356,1.98092884 L2.80399082,1.98092884 C3.39919948,1.98092884 3.84560598,2.07393019 4.14321031,2.2599329 C4.44081464,2.44593561 4.58961681,2.76214021 4.58961681,3.20854671 C4.58961681,3.59915239 4.44778975,3.91070693 4.16413562,4.14321031 C3.88048149,4.3757137 3.41779975,4.49196539 2.77609041,4.49196539 L2.77609041,4.49196539 Z M2.98534346,8.59332509 L1.61822356,8.59332509 L1.61822356,5.70563306 L2.98534346,5.70563306 C3.67355348,5.70563306 4.19436106,5.81490965 4.5477662,6.03346283 C4.90117135,6.25201601 5.07787392,6.60309612 5.07787392,7.08670316 C5.07787392,7.59821061 4.89652128,7.97719112 4.533816,8.22364471 C4.17111072,8.4700983 3.65495321,8.59332509 2.98534346,8.59332509 L2.98534346,8.59332509 Z M9.84884337,10.0162458 C10.2580493,10.0162458 10.6370298,9.92789452 10.9857849,9.75119195 C11.33454,9.57448938 11.6623698,9.35593619 11.9692742,9.0955324 L11.9692742,9.0955324 L12.025075,9.0955324 L12.1366767,9.84884337 L13.461946,9.84884337 L13.461946,5.78933428 C13.461946,4.83142033 13.2503679,4.09903467 12.8272117,3.59217729 C12.4040556,3.08531991 11.7646713,2.83189122 10.9090588,2.83189122 C10.3603508,2.83189122 9.84884337,2.92024251 9.37453646,3.09694508 C8.90022956,3.27364765 8.47242333,3.4829007 8.09111778,3.72470422 L8.09111778,3.72470422 L8.67702631,4.79886986 C8.98393078,4.61286715 9.29781035,4.45476485 9.61866502,4.32456295 C9.93951969,4.19436106 10.2673495,4.12926011 10.6021543,4.12926011 C10.8346577,4.12926011 11.0299606,4.16413562 11.1880629,4.23388663 C11.3461652,4.30363765 11.474042,4.40128907 11.5716934,4.5268409 C11.6693449,4.65239272 11.7390959,4.79654482 11.7809465,4.95929719 C11.8227971,5.12204956 11.8483725,5.29177703 11.8576726,5.4684796 C11.1508623,5.54288069 10.5440285,5.64983224 10.0371711,5.78933428 C9.53031373,5.92883631 9.11180764,6.10088881 8.78165283,6.30549179 C8.45149803,6.51009477 8.20969451,6.75422332 8.05624227,7.03787745 C7.90279004,7.32153158 7.82606392,7.64471128 7.82606392,8.00741656 C7.82606392,8.61192536 8.01206663,9.09785744 8.38407205,9.46521278 C8.75607746,9.83256813 9.24433457,10.0162458 9.84884337,10.0162458 Z M10.3650009,8.76072753 C10.0766967,8.76072753 9.83954323,8.69097651 9.65354053,8.55147448 C9.46753782,8.41197245 9.37453646,8.1887692 9.37453646,7.88186474 C9.37453646,7.7144623 9.41638707,7.55636 9.50008829,7.40755783 C9.58378951,7.25875567 9.72329154,7.12622874 9.91859438,7.00997704 C10.1138972,6.89372535 10.369651,6.78909883 10.6858556,6.69609747 C11.0020602,6.60309612 11.3926658,6.52869504 11.8576726,6.47289423 L11.8576726,6.47289423 L11.8576726,8.00741656 C11.5972688,8.24922008 11.3531403,8.43522279 11.125287,8.56542469 C10.8974336,8.69562658 10.6440049,8.76072753 10.3650009,8.76072753 Z M16.2519866,13.0992407 C17.0610984,13.0620401 17.6842074,12.9364883 18.1213138,12.7225852 C18.5584202,12.5086821 18.7769733,12.1785273 18.7769733,11.7321208 C18.7769733,11.4438166 18.686297,11.2229384 18.5049444,11.0694861 C18.3235917,10.9160339 18.065513,10.7974572 17.7307081,10.713756 L17.7307081,10.713756 L18.074481,9.9445019 L18.2357055,9.90910825 L18.2357055,9.90910825 L18.4421685,9.84884337 C18.7769733,9.73724174 19.0559774,9.58611454 19.2791806,9.39546177 C19.5023839,9.20480899 19.6721114,8.98160574 19.7883631,8.72585202 C19.9046148,8.4700983 19.9627406,8.19341927 19.9627406,7.89581494 C19.9627406,7.57961034 19.9046148,7.30758138 19.7883631,7.07972806 C19.6721114,6.85187474 19.5186591,6.65889693 19.3280064,6.50079463 C19.1373536,6.34269233 18.9257755,6.2101654 18.6932721,6.10321384 C18.4607687,5.99626229 18.2282653,5.9009359 17.995762,5.81723468 C17.8097593,5.75213373 17.6307316,5.68703279 17.4586791,5.62193184 C17.2866266,5.55683089 17.1354994,5.48707988 17.0052975,5.41267879 C16.8750957,5.33827771 16.7704691,5.25225146 16.691418,5.15460004 C16.6123668,5.05694861 16.5728413,4.93837189 16.5728413,4.79886986 C16.5728413,4.58496674 16.6542174,4.40593914 16.8169698,4.26178704 C16.9797222,4.11763494 17.2331509,4.04555889 17.5772559,4.04555889 C17.8469598,4.04555889 18.1050386,4.09903467 18.3514921,4.20598623 C18.5979457,4.31293778 18.8420743,4.45476485 19.0838778,4.63146742 L19.0838778,4.63146742 L19.8232386,3.65495321 C19.5442345,3.44105009 19.2140797,3.25039732 18.8327741,3.08299488 C18.4514686,2.91559244 18.0236624,2.83189122 17.5493555,2.83189122 C16.7774442,2.83189122 16.1682854,3.022544 15.7218789,3.40384955 C15.2754724,3.7851551 15.0522691,4.27806228 15.0522691,4.88257108 C15.0522691,5.17087527 15.110395,5.41965389 15.2266467,5.62890694 C15.3428983,5.83815999 15.4917005,6.02183766 15.6730532,6.17993996 C15.8544058,6.33804226 16.0613338,6.47289423 16.2938372,6.58449585 C16.5263406,6.69609747 16.7541939,6.7937489 16.9773971,6.87745011 C17.1540997,6.9518512 17.3308023,7.02392725 17.5075049,7.09367826 C17.6842074,7.16342928 17.8423097,7.24015539 17.9818118,7.32385661 C18.1213138,7.40755783 18.2329154,7.50288422 18.3166166,7.60983578 C18.4003179,7.71678733 18.4421685,7.84001413 18.4421685,7.97951616 C18.4421685,8.22131968 18.3538172,8.41894755 18.1771146,8.57239979 C18.000412,8.72585202 17.726058,8.80257814 17.3540526,8.80257814 C17.0006475,8.80257814 16.6728177,8.73515216 16.3705633,8.60030019 C16.0683089,8.46544823 15.7637295,8.27712049 15.456825,8.03531697 L15.456825,8.03531697 L14.703514,9.067632 C15.0383189,9.33733592 15.4358997,9.56286421 15.8962564,9.74421685 C16.2031609,9.86511861 16.5131654,9.94571978 16.8262699,9.98602037 L17.0601019,10.0092707 L16.5170404,11.1183118 C16.8757599,11.1661411 17.1354045,11.2310523 17.2959742,11.3130453 L17.3680028,11.3554653 C17.516805,11.4577668 17.5912061,11.5879687 17.5912061,11.746071 C17.5912061,11.950674 17.4865796,12.1018012 17.2773265,12.1994526 C17.0680735,12.297104 16.6797928,12.36453 16.1124845,12.4017305 L16.1124845,12.4017305 L16.2519866,13.0992407 Z M23.0596857,10.0162458 C23.4688916,10.0162458 23.8478722,9.92789452 24.1966272,9.75119195 C24.5453823,9.57448938 24.8732121,9.35593619 25.1801165,9.0955324 L25.1801165,9.0955324 L25.2359174,9.0955324 L25.347519,9.84884337 L26.6727883,9.84884337 L26.6727883,5.78933428 C26.6727883,4.83142033 26.4612102,4.09903467 26.038054,3.59217729 C25.6148979,3.08531991 24.9755136,2.83189122 24.1199011,2.83189122 C23.5711931,2.83189122 23.0596857,2.92024251 22.5853788,3.09694508 C22.1110719,3.27364765 21.6832656,3.4829007 21.3019601,3.72470422 L21.3019601,3.72470422 L21.8878686,4.79886986 C22.1947731,4.61286715 22.5086527,4.45476485 22.8295073,4.32456295 C23.150362,4.19436106 23.4781918,4.12926011 23.8129966,4.12926011 C24.0455,4.12926011 24.2408029,4.16413562 24.3989052,4.23388663 C24.5570075,4.30363765 24.6848843,4.40128907 24.7825358,4.5268409 C24.8801872,4.65239272 24.9499382,4.79654482 24.9917888,4.95929719 C25.0336394,5.12204956 25.0592148,5.29177703 25.0685149,5.4684796 C24.3617046,5.54288069 23.7548708,5.64983224 23.2480134,5.78933428 C22.741156,5.92883631 22.3226499,6.10088881 21.9924951,6.30549179 C21.6623403,6.51009477 21.4205368,6.75422332 21.2670846,7.03787745 C21.1136324,7.32153158 21.0369062,7.64471128 21.0369062,8.00741656 C21.0369062,8.61192536 21.2229089,9.09785744 21.5949144,9.46521278 C21.9669198,9.83256813 22.4551769,10.0162458 23.0596857,10.0162458 Z M23.5758432,8.76072753 C23.287539,8.76072753 23.0503855,8.69097651 22.8643828,8.55147448 C22.6783801,8.41197245 22.5853788,8.1887692 22.5853788,7.88186474 C22.5853788,7.7144623 22.6272294,7.55636 22.7109306,7.40755783 C22.7946318,7.25875567 22.9341339,7.12622874 23.1294367,7.00997704 C23.3247395,6.89372535 23.5804933,6.78909883 23.8966979,6.69609747 C24.2129025,6.60309612 24.6035082,6.52869504 25.0685149,6.47289423 L25.0685149,6.47289423 L25.0685149,8.00741656 C24.8081111,8.24922008 24.5639826,8.43522279 24.3361293,8.56542469 C24.1082759,8.69562658 23.8548473,8.76072753 23.5758432,8.76072753 Z M30.2021897,9.84884337 L30.2021897,5.66378245 C30.4160928,5.14297487 30.6718465,4.77794455 30.9694508,4.56869151 C31.2670552,4.35943846 31.5507093,4.25481194 31.8204132,4.25481194 C31.9692154,4.25481194 32.0947672,4.26411207 32.1970687,4.28271234 C32.2993702,4.30131261 32.4109718,4.32921302 32.5318736,4.36641356 L32.5318736,4.36641356 L32.8108776,2.97139325 C32.6155748,2.8783919 32.355171,2.83189122 32.0296663,2.83189122 C31.666961,2.83189122 31.3135558,2.95046795 30.9694508,3.1876214 C30.6253458,3.42477485 30.3323915,3.76655483 30.090588,4.21296133 L30.090588,4.21296133 L30.0347872,4.21296133 L29.9231856,2.99929366 L28.5979163,2.99929366 L28.5979163,9.84884337 L30.2021897,9.84884337 Z M35.4056154,9.84884337 L35.4056154,2.99929366 L33.801342,2.99929366 L33.801342,9.84884337 L35.4056154,9.84884337 Z M39.018718,10.0162458 C39.3721231,10.0162458 39.6557773,9.96974513 39.8696804,9.87674378 L39.8696804,9.87674378 L39.6604273,8.67702631 C39.5953264,8.69562658 39.5465007,8.70492672 39.5139502,8.70492672 L39.5139502,8.70492672 L39.4093237,8.70492672 C39.3256225,8.70492672 39.2465713,8.66540114 39.1721702,8.58634999 C39.0977691,8.50729884 39.0605686,8.37012184 39.0605686,8.174819 L39.0605686,8.174819 L39.0605686,0 L37.4562952,0 L37.4562952,8.09111778 C37.4562952,8.68632645 37.5725469,9.15598328 37.8050503,9.50008829 C38.0375537,9.8441933 38.4421096,10.0162458 39.018718,10.0162458 Z M42.8410736,9.84884337 L42.8410736,2.99929366 L41.2368003,2.99929366 L41.2368003,9.84884337 L42.8410736,9.84884337 Z M50.4857849,10.0162458 C50.9972924,10.0162458 51.455324,9.94416976 51.8598799,9.80001766 C52.2644358,9.65586556 52.6085408,9.46056272 52.8921949,9.21410913 C53.1758491,8.96765554 53.3920772,8.68167638 53.5408794,8.35617164 C53.6896816,8.0306669 53.7640826,7.68191183 53.7640826,7.30990641 C53.7640826,6.97510154 53.717582,6.67982224 53.6245806,6.42406851 C53.5315793,6.16831479 53.4037024,5.94278651 53.24095,5.74748367 C53.0781977,5.55218082 52.8852198,5.38012832 52.6620166,5.23132615 C52.4388133,5.08252399 52.1923598,4.95232209 51.9226558,4.84072047 L51.9226558,4.84072047 L50.6810878,4.32456295 C50.4950851,4.25016187 50.3137324,4.17343575 50.1370298,4.0943846 C49.9603273,4.01533345 49.80455,3.92698216 49.669698,3.82933074 C49.5348461,3.73167932 49.4278945,3.6200777 49.3488434,3.49452587 C49.2697922,3.36897404 49.2302666,3.21784684 49.2302666,3.04114427 C49.2302666,2.7063394 49.3604685,2.44361057 49.6208723,2.2529578 C49.8812761,2.06230502 50.2300312,1.96697863 50.6671376,1.96697863 C51.0577432,1.96697863 51.4111484,2.03672965 51.727353,2.17623168 C52.0435576,2.31573371 52.3504621,2.50638649 52.6480664,2.74819001 L52.6480664,2.74819001 L53.4711284,1.71587498 C53.1177232,1.36246983 52.6945671,1.08114074 52.2016599,0.871887692 C51.7087527,0.662634646 51.1972453,0.558008123 50.6671376,0.558008123 C50.2207311,0.558008123 49.8092001,0.623109071 49.4325446,0.753310966 C49.0558891,0.883512861 48.7327094,1.0648655 48.4630055,1.29736889 C48.1933015,1.52987227 47.9817235,1.80190123 47.8282712,2.11345577 C47.674819,2.4250103 47.5980929,2.76214021 47.5980929,3.12484549 C47.5980929,3.45965036 47.6515687,3.75725469 47.7585202,4.01765848 C47.8654718,4.27806228 48.0072988,4.50591559 48.1840014,4.70121844 C48.360704,4.89652128 48.5583319,5.06392372 48.776885,5.20342575 C48.9954382,5.34292778 49.2163164,5.45917947 49.4395197,5.55218082 L49.4395197,5.55218082 L50.695038,6.09623874 C50.8996409,6.17993996 51.0879687,6.26364118 51.2600212,6.3473424 C51.4320737,6.43104362 51.5808759,6.52171994 51.7064277,6.61937136 C51.8319795,6.71702278 51.9296309,6.83094944 51.999382,6.96115133 C52.069133,7.09135323 52.1040085,7.24945553 52.1040085,7.43545824 C52.1040085,7.78886338 51.9691565,8.07251751 51.6994526,8.28642063 C51.4297487,8.50032374 51.0344929,8.6072753 50.5136853,8.6072753 C50.0951792,8.6072753 49.6766731,8.51194891 49.258167,8.32129613 C48.839661,8.13064336 48.4676555,7.88186474 48.1421508,7.57496027 L48.1421508,7.57496027 L47.193537,8.67702631 C47.6306434,9.10483254 48.1351757,9.43498734 48.707134,9.66749073 C49.2790924,9.89999411 49.871976,10.0162458 50.4857849,10.0162458 Z M56.9447289,10.0162458 C57.3539349,10.0162458 57.7329154,9.92789452 58.0816705,9.75119195 C58.4304256,9.57448938 58.7582553,9.35593619 59.0651598,9.0955324 L59.0651598,9.0955324 L59.1209606,9.0955324 L59.2325622,9.84884337 L60.5578315,9.84884337 L60.5578315,5.78933428 C60.5578315,4.83142033 60.3462535,4.09903467 59.9230973,3.59217729 C59.4999411,3.08531991 58.8605568,2.83189122 58.0049444,2.83189122 C57.4562364,2.83189122 56.9447289,2.92024251 56.470422,3.09694508 C55.9961151,3.27364765 55.5683089,3.4829007 55.1870034,3.72470422 L55.1870034,3.72470422 L55.7729119,4.79886986 C56.0798164,4.61286715 56.3936959,4.45476485 56.7145506,4.32456295 C57.0354053,4.19436106 57.363235,4.12926011 57.6980399,4.12926011 C57.9305433,4.12926011 58.1258461,4.16413562 58.2839484,4.23388663 C58.4420507,4.30363765 58.5699276,4.40128907 58.667579,4.5268409 C58.7652304,4.65239272 58.8349815,4.79654482 58.8768321,4.95929719 C58.9186827,5.12204956 58.944258,5.29177703 58.9535582,5.4684796 C58.2467479,5.54288069 57.6399141,5.64983224 57.1330567,5.78933428 C56.6261993,5.92883631 56.2076932,6.10088881 55.8775384,6.30549179 C55.5473836,6.51009477 55.3055801,6.75422332 55.1521278,7.03787745 C54.9986756,7.32153158 54.9219495,7.64471128 54.9219495,8.00741656 C54.9219495,8.61192536 55.1079522,9.09785744 55.4799576,9.46521278 C55.851963,9.83256813 56.3402201,10.0162458 56.9447289,10.0162458 Z M57.4608865,8.76072753 C57.1725823,8.76072753 56.9354288,8.69097651 56.7494261,8.55147448 C56.5634234,8.41197245 56.470422,8.1887692 56.470422,7.88186474 C56.470422,7.7144623 56.5122726,7.55636 56.5959739,7.40755783 C56.6796751,7.25875567 56.8191771,7.12622874 57.01448,7.00997704 C57.2097828,6.89372535 57.4655365,6.78909883 57.7817411,6.69609747 C58.0979457,6.60309612 58.4885514,6.52869504 58.9535582,6.47289423 L58.9535582,6.47289423 L58.9535582,8.00741656 C58.6931544,8.24922008 58.4490258,8.43522279 58.2211725,8.56542469 C57.9933192,8.69562658 57.7398905,8.76072753 57.4608865,8.76072753 Z M64.6731414,10.0162458 C64.9428454,10.0162458 65.1962741,9.99067043 65.4334275,9.93951969 C65.670581,9.88836894 65.882159,9.8302431 66.0681618,9.76514215 L66.0681618,9.76514215 L65.7891577,8.57937489 C65.6868562,8.62587557 65.5729295,8.66307611 65.4473777,8.69097651 C65.3218259,8.71887692 65.1985991,8.73282712 65.0776973,8.73282712 C64.435988,8.73282712 64.1151333,8.3329213 64.1151333,7.53310966 L64.1151333,7.53310966 L64.1151333,4.26876214 L65.8589087,4.26876214 L65.8589087,2.99929366 L64.1151333,2.99929366 L64.1151333,1.12996645 L62.7759138,1.12996645 L62.580611,2.99929366 L61.5203956,3.06904468 L61.5203956,4.26876214 L62.4969098,4.26876214 L62.4969098,7.53310966 C62.4969098,7.90511507 62.5364353,8.24224498 62.6154865,8.54449938 C62.6945376,8.84675378 62.8200895,9.10715757 62.992142,9.32571075 C63.1641945,9.54426394 63.3873977,9.71399141 63.6617517,9.83489317 C63.9361057,9.95579493 64.2732356,10.0162458 64.6731414,10.0162458 Z M68.900053,9.84884337 L68.900053,2.99929366 L67.2957796,2.99929366 L67.2957796,9.84884337 L68.900053,9.84884337 Z M73.8105245,10.0162458 C74.2011301,10.0162458 74.5894108,9.94649479 74.9753664,9.80699276 C75.361322,9.66749073 75.7170522,9.45823768 76.0425569,9.17923362 L76.0425569,9.17923362 L75.3868974,8.11901819 C75.1915946,8.27712049 74.9753664,8.41429749 74.738213,8.53054918 C74.5010595,8.64680087 74.2476308,8.70492672 73.9779269,8.70492672 C73.438519,8.70492672 72.9990876,8.49799871 72.6596327,8.08414268 C72.3201778,7.67028666 72.1504503,7.11925363 72.1504503,6.43104362 C72.1504503,5.73353346 72.3225028,5.17785037 72.6666078,4.76399435 C73.0107128,4.35013832 73.4617694,4.14321031 74.0197775,4.14321031 C74.2336806,4.14321031 74.4313085,4.18738596 74.6126611,4.27573724 C74.7940138,4.36408853 74.9776914,4.48731532 75.1636942,4.64541762 L75.1636942,4.64541762 L75.9449055,3.59915239 C75.6938019,3.38524928 75.4078227,3.20389664 75.086968,3.05509447 C74.7661134,2.90629231 74.3824828,2.83189122 73.9360763,2.83189122 C73.4803697,2.83189122 73.0455883,2.91326741 72.6317323,3.07601978 C72.2178763,3.23877215 71.852846,3.47360057 71.5366414,3.78050503 C71.2204368,4.0874095 70.9693331,4.46406498 70.7833304,4.91047148 C70.5973277,5.35687798 70.5043263,5.86373536 70.5043263,6.43104362 C70.5043263,6.99835187 70.5880275,7.50520925 70.75543,7.95161575 C70.9228324,8.39802225 71.1553358,8.77467773 71.4529401,9.0815822 C71.7505445,9.38848667 72.1016246,9.62099005 72.5061805,9.77909235 C72.9107364,9.93719466 73.3455177,10.0162458 73.8105245,10.0162458 Z M79,9.84884337 L79,2.99929366 L77.3957266,2.99929366 L77.3957266,9.84884337 L79,9.84884337 Z" id="BaşarılıSatıcı"></path>
                    </g>
                    <g id="Group">
                        <path d="M22.6657413,13.8382528 L22.6703413,13.8382528 C22.5783418,13.6281874 22.5016756,13.3935888 22.4495426,13.1375236 C22.267077,12.2819286 22.3682764,11.3895337 22.6703413,10.6949378 L22.6657413,10.6949378 C23.013806,10.0386749 23.1073388,9.24287957 22.8650735,8.47621736 C22.6212749,7.70955515 22.0907447,7.1222919 21.4329485,6.8018271 L21.4360151,6.80029378 C21.2397496,6.68376112 21.0465507,6.53962863 20.8564185,6.36636297 C20.2200889,5.78216637 19.7892247,4.99863759 19.6374256,4.25497525 L19.6328256,4.2580419 C19.5454261,3.57111256 19.2126947,2.91944968 18.6576313,2.45025241 C18.6146982,2.41345263 18.5702318,2.37818617 18.5226988,2.3429197 C17.8879025,1.86758914 17.1227736,1.71579002 16.4067111,1.85225589 L16.4067111,1.84918924 C16.1828457,1.87218911 15.9436471,1.87372243 15.6906486,1.84765592 C14.8427202,1.7587231 14.0453915,1.38459195 13.494928,0.873994916 L13.494928,0.878594889 C12.9919976,0.337331371 12.2820684,0 11.500073,0 C10.7150109,0 10.0081483,0.337331371 9.50675122,0.880128214 L9.5052179,0.873994916 C9.33655221,1.03039401 9.14335334,1.17759315 8.92408794,1.30792573 C8.1865589,1.74798983 7.32943055,1.92738879 6.59036819,1.84612259 L6.59343484,1.85225589 C5.87737233,1.71579002 5.11071013,1.86758914 4.47744714,2.3429197 C4.03584971,2.67105113 3.71691823,3.10958191 3.5329193,3.59717908 C3.45165311,3.80877784 3.39492011,4.03110988 3.36578694,4.25650857 L3.36272029,4.25497525 C3.31672056,4.48190726 3.24312099,4.7165059 3.14038825,4.95417118 C2.79692359,5.75763318 2.20506036,6.418496 1.56106411,6.79876045 L1.56566408,6.8018271 C0.909401238,7.12382523 0.377337666,7.70955515 0.136605733,8.47621736 C-0.108726173,9.24287957 -0.0121267348,10.0386749 0.334404583,10.6949378 L0.32980461,10.6949378 C0.421804074,10.9065366 0.495403646,11.1411352 0.550603325,11.395667 C0.731535606,12.2527954 0.630336195,13.1451902 0.32980461,13.8382528 L0.334404583,13.8382528 C-0.0121267348,14.4975823 -0.107192848,15.2918444 0.135072409,16.0585066 C0.377337666,16.8251688 0.910934563,17.4108987 1.56566408,17.7313635 L1.56259743,17.7344302 C1.75886296,17.8509628 1.95359516,17.9950953 2.14219406,18.1698943 C2.78005702,18.7525576 3.20938785,19.5360864 3.36272029,20.281282 L3.36578694,20.2766821 C3.38265351,20.399348 3.4071867,20.522014 3.43938652,20.6446799 C3.59731893,21.2457431 3.94845022,21.7977399 4.47744714,22.1918042 C4.86997819,22.4831359 5.31310895,22.6548682 5.76390633,22.7100679 C6.03990472,22.743801 6.32050309,22.7346011 6.59190151,22.6824681 L6.59190151,22.687068 C6.81576688,22.6625348 7.05649881,22.6610015 7.30796401,22.687068 C8.15742574,22.7775342 8.95322111,23.150132 9.50368457,23.660729 L9.50675122,23.6545957 C10.0081483,24.1958593 10.7150109,24.5331906 11.500073,24.5331906 C12.2851351,24.5331906 12.9935309,24.1958593 13.4933947,23.6545957 L13.4933947,23.6576624 C13.6620604,23.5012633 13.8567926,23.3555975 14.076058,23.2252649 C14.813587,22.7836675 15.6707154,22.6058018 16.4082444,22.687068 L16.4082444,22.6824681 C16.4956439,22.6978013 16.5845767,22.7131345 16.6750428,22.7192678 C17.3098392,22.7744675 17.9676353,22.6058018 18.5242321,22.1918042 C19.0148959,21.8238064 19.3537606,21.3224093 19.5254929,20.7704125 C19.5760926,20.6078801 19.6113591,20.4438144 19.6328256,20.2766821 L19.6358923,20.2797487 C19.681892,20.0512834 19.7554916,19.8166847 19.8582243,19.5790194 C20.2032223,18.7755575 20.7950855,18.1146946 21.4375485,17.7344302 L21.4329485,17.7313635 C22.0907447,17.4108987 22.6212749,16.8236355 22.8650735,16.0585066 C23.1073388,15.2918444 23.013806,14.4945157 22.6657413,13.8382528 Z" id="Path" fill="#F27A1A"></path>
                        <g id="Shape" transform="translate(5.000000, 5.000000)" fill="#FFFFFF">
                            <path d="M12.3427778,6.52925253 C12.6388889,6.24180808 13,5.92547475 13,5.49358586 C13,5.06169697 12.6721111,4.74536364 12.3427778,4.45791919 C12.1463333,4.28458586 11.9816667,4.11125253 11.9166667,3.93936364 C11.8516667,3.76603031 11.8834444,3.50747475 11.9166667,3.27780808 C11.9816667,2.90225253 12.0148889,2.47180808 11.752,2.12658586 C11.4905556,1.77991919 10.998,1.69325253 10.5704444,1.63691919 C10.3075556,1.57914142 10.0128889,1.52136364 9.84822222,1.43469697 C9.685,1.3480303 9.55355556,1.11836363 9.42211111,0.917585857 C9.191,0.57091919 8.96277778,0.198252523 8.502,0.053808079 C8.07588889,-0.0617474765 7.61655556,0.111585857 7.22222222,0.256030301 C6.95933333,0.342696968 6.69644444,0.458252523 6.5,0.458252523 C6.30355556,0.458252523 6.00888889,0.342696968 5.77777778,0.256030301 C5.38344444,0.0826969679 4.92555556,-0.0906363654 4.498,0.053808079 C4.03722222,0.169363635 3.80755556,0.572363635 3.57788889,0.917585857 C3.44788889,1.11980808 3.315,1.34947475 3.15177778,1.43614141 C2.98711111,1.52280808 2.72422222,1.58058586 2.42955556,1.63691919 C2.002,1.72358586 1.50944444,1.81025253 1.248,2.12658586 C0.985111111,2.44291919 1.01688889,2.87480808 1.08333333,3.27780808 C1.11655556,3.50891919 1.14833333,3.76747475 1.08333333,3.93936364 C1.01833333,4.08380808 0.820444444,4.28603031 0.657222222,4.45791919 C0.361111111,4.74536364 0,5.06169697 0,5.49358586 C0,5.92547475 0.327888889,6.24180808 0.657222222,6.52925253 C0.853666667,6.70258586 1.01833333,6.87591919 1.08333333,7.04925253 C1.14833333,7.22114142 1.11655556,7.47969697 1.08333333,7.70936364 C1.01833333,8.08491919 0.985111111,8.51536364 1.248,8.86058586 C1.50944444,9.17836364 2.002,9.29391919 2.42955556,9.35169697 C2.69244444,9.40803031 2.98711111,9.43691919 3.15177778,9.55247475 C3.315,9.63914142 3.44644444,9.86880808 3.57788889,10.0695859 C3.809,10.4162525 4.03722222,10.7889192 4.498,10.9044748 C4.92411111,11.0200303 5.38344444,10.846697 5.77777778,10.7022525 C6.04066667,10.6155859 6.30355556,10.5014748 6.5,10.5014748 C6.69644444,10.5014748 6.95933333,10.6170303 7.22222222,10.703697 C7.51833333,10.8192525 7.84622222,10.9622525 8.20733333,10.9622525 C8.30555556,10.9622525 8.40377778,10.9622525 8.502,10.9044748 C8.96277778,10.7889192 9.19244444,10.3859192 9.42211111,10.0695859 C9.55211111,9.86736364 9.685,9.63769697 9.84822222,9.55247475 C10.0128889,9.43691919 10.2757778,9.40803031 10.5704444,9.35025253 C10.998,9.26358586 11.4905556,9.17691919 11.752,8.86058586 C12.0148889,8.54425253 11.9831111,8.11236364 11.9166667,7.70936364 C11.8834444,7.47969697 11.8516667,7.22114142 11.9166667,7.04780808 C11.9498889,6.87447475 12.1477778,6.70258586 12.3427778,6.52925253 Z M6.46677778,9.12058586 C4.20188889,9.12058586 2.33133333,7.47969697 2.33133333,5.49503031 C2.33133333,3.50747475 4.20188889,1.86658586 6.46677778,1.86658586 C8.73166667,1.86658586 10.6036667,3.50747475 10.6036667,5.49358586 C10.6036667,7.47969697 8.73166667,9.11914142 6.46677778,9.11914142 L6.46677778,9.12058586 Z"></path>
                            <path d="M9.98111111,10.3570303 C9.75,10.7325859 9.38888889,11.2785859 8.69988889,11.4808081 C8.53522222,11.5385859 8.37055556,11.5385859 8.20733333,11.5385859 C7.77977778,11.5385859 7.41866667,11.3941414 7.09077778,11.2785859 L8.502,14.2440303 C8.56844444,14.3595859 8.66666667,14.4173636 8.79811111,14.4173636 C8.92811111,14.4173636 9.02777778,14.3595859 9.09277778,14.2729192 L9.71677778,13.2358081 L10.998,13.5535859 C11.128,13.5824748 11.2594444,13.5535859 11.3258889,13.4669192 C11.4241111,13.3802525 11.4241111,13.264697 11.3908889,13.1491414 L10.0128889,10.300697 C9.97966667,10.3295859 9.97966667,10.3295859 9.97966667,10.3584748 L9.98111111,10.3570303 Z M4.26833333,11.4519192 C3.57788889,11.249697 3.25,10.7325859 2.98711111,10.3584748 L2.95388889,10.3295859 L1.57588889,13.1780303 C1.50944444,13.2935859 1.54266667,13.4091414 1.64088889,13.4958081 C1.74055556,13.5824748 1.872,13.6113636 1.97022222,13.5824748 L3.25,13.264697 L3.874,14.3003636 C3.939,14.3870303 4.03722222,14.444808 4.16866667,14.444808 C4.30011111,14.444808 4.39977778,14.3581414 4.46477778,14.2714748 L5.876,11.3074748 C5.58133333,11.4230303 5.187,11.5674748 4.75944444,11.5674748 C4.59622222,11.5385859 4.43155556,11.509697 4.26833333,11.4519192 L4.26833333,11.4519192 Z M8.60166667,4.68758586 L7.32044444,4.51425253 L6.72966667,3.50747475 C6.63144444,3.30525253 6.23855556,3.30525253 6.13888889,3.50747475 L5.54666667,4.51569697 L4.26833333,4.68903031 C4.13688889,4.71791919 4.03722222,4.77425253 4.00544444,4.88980808 C3.97222222,5.00536364 4.00544444,5.11947475 4.10366667,5.17725253 L5.02233333,5.98325253 L4.79266667,7.10558586 C4.75944444,7.22114142 4.82588889,7.33669697 4.92411111,7.39447475 C4.99055556,7.42336364 5.05555556,7.45080808 5.12055556,7.45080808 C5.187,7.45080808 5.22022222,7.45080808 5.28522222,7.42191919 L6.435,6.90336364 L7.58333333,7.42336364 C7.68155556,7.47969697 7.81444444,7.47969697 7.91122222,7.39447475 C8.00944444,7.33669697 8.07588889,7.22114142 8.04266667,7.10558586 L7.813,5.98325253 L8.73166667,5.17725253 C8.83133333,5.09058586 8.86311111,4.97503031 8.83133333,4.88836364 C8.83133333,4.77280808 8.73166667,4.68758586 8.60022222,4.68758586 L8.60166667,4.68758586 Z"></path>
                        </g>
                    </g>
                </g>
            </g>
        </g>
    </g>
</svg>