<?xml version="1.0" encoding="UTF-8"?>
<svg width="107px" height="27px" viewBox="0 0 107 27" version="1.1" xmlns="http://www.w3.org/2000/svg" xmlns:xlink="http://www.w3.org/1999/xlink">
    <title>Group 2</title>
    <g id="Page-1" stroke="none" stroke-width="1" fill="none" fill-rule="evenodd">
        <g id="Group-2">
            <g id="hızlı">
                <path d="M101.583333,2.76041667 L12.1458333,2.76041667 C9.40166848,2.76041667 7.17708333,4.98500182 7.17708333,7.72916667 L7.17708333,19.875 C7.17708333,22.6191649 9.40166848,24.84375 12.1458333,24.84375 L101.583333,24.84375 C104.327498,24.84375 106.552083,22.6191649 106.552083,19.875 L106.552083,7.72916667 C106.552083,4.98500182 104.327498,2.76041667 101.583333,2.76041667 Z" id="Rectangle" fill="#0BC15C" fill-rule="nonzero"></path>
                <path d="M12.1458333,3.86458333 L101.583333,3.86458333 C103.717684,3.86458333 105.447917,5.59481623 105.447917,7.72916667 L105.447917,19.875 C105.447917,22.0093504 103.717684,23.7395833 101.583333,23.7395833 L12.1458333,23.7395833 C10.0114829,23.7395833 8.28125,22.0093504 8.28125,19.875 L8.28125,7.72916667 C8.28125,5.59481623 10.0114829,3.86458333 12.1458333,3.86458333 Z" id="Path" fill="#FFFFFF" fill-rule="nonzero"></path>
                <g id="hızlı-satıcı">
                    <g id="path-1-link" transform="translate(31.879600, 7.857250)"></g>
                    <g id="Group-7" fill-rule="nonzero">
                        <g id="Group" fill="#0BC15C">
                            <path d="M25.026756,15.2296875 L25.0318352,15.2296875 C24.9302524,14.9985 24.8456001,14.7403126 24.7880366,14.4585 C24.5865642,13.5168751 24.6983052,12.53475 25.0318352,11.7703125 L25.026756,11.7703125 C25.4110775,11.0480625 25.5143533,10.17225 25.246852,9.32850001 C24.9776577,8.48475 24.3918639,7.8384375 23.6655473,7.48575001 L23.6689333,7.48406251 C23.4522235,7.35581251 23.2388997,7.19718751 23.0289621,7.00650001 C22.3263482,6.36356251 21.8506023,5.50125001 21.6829908,4.68281251 L21.6779116,4.68618751 C21.581408,3.9301875 21.2140171,3.213 20.6011346,2.696625 C20.5537293,2.65612501 20.5046309,2.61731251 20.4521466,2.5785 C19.7512257,2.05537501 18.9063959,1.8883125 18.1157435,2.0385 L18.1157435,2.035125 C17.8685588,2.0604375 17.6044437,2.062125 17.3250912,2.0334375 C16.3888369,1.9355625 15.5084531,1.52381251 14.9006497,0.961875001 L14.9006497,0.966937501 C14.3453307,0.37125 13.5614505,0 12.6979973,0 C11.8311579,0 11.0506637,0.37125 10.4970378,0.968625001 L10.4953448,0.961875001 C10.3091097,1.13400001 10.095786,1.296 9.85368043,1.43943751 C9.03932545,1.92375 8.0929129,2.1211875 7.27686488,2.03175 L7.28025097,2.0385 C6.48959861,1.8883125 5.64307577,2.05537501 4.94384788,2.5785 C4.45625072,2.939625 4.10409721,3.42225 3.90093173,3.95887501 C3.81120031,4.19175 3.74855762,4.4364375 3.71638975,4.6845 L3.71300365,4.68281251 C3.66221229,4.9325625 3.58094609,5.19075001 3.46751203,5.4523125 C3.0882698,6.33656251 2.43475415,7.06387501 1.72367496,7.48237501 L1.72875409,7.48575001 C1.00413053,7.84012501 0.416643673,8.48475 0.150835497,9.32850001 C-0.120051816,10.17225 -0.0133899361,11.0480625 0.369238394,11.7703125 L0.364159257,11.7703125 C0.465741999,12.0031876 0.547008193,12.261375 0.607957838,12.5415 C0.807737232,13.4848125 0.695996216,14.4669375 0.364159257,15.2296875 L0.369238394,15.2296875 C-0.0133899361,15.9553125 -0.118358769,16.8294375 0.149142452,17.6731875 C0.416643673,18.5169375 1.00582358,19.1615625 1.72875409,19.51425 L1.725368,19.517625 C1.94207785,19.645875 2.15709466,19.8045 2.36533927,19.996875 C3.06964629,20.638125 3.54369908,21.5004376 3.71300365,22.3205625 L3.71638975,22.3155001 C3.73501325,22.4505 3.76210198,22.5855001 3.79765595,22.7205 C3.97203965,23.382 4.35974712,23.9895001 4.94384788,24.4231875 C5.37726759,24.7438125 5.8665578,24.9328125 6.36431324,24.9935625 C6.66906146,25.0306875 6.97888883,25.0205625 7.27855792,24.9631876 L7.27855792,24.96825 C7.5257426,24.94125 7.79155077,24.9395625 8.06921026,24.96825 C9.00715759,25.0678126 9.88584831,25.477875 10.4936517,26.0398125 L10.4970378,26.0330625 C11.0506637,26.6287501 11.8311579,27 12.6979973,27 C13.5648367,27 14.3470237,26.6287501 14.8989566,26.0330625 L14.8989566,26.0364375 C15.0851917,25.8643125 15.3002085,25.7040001 15.542314,25.5605625 C16.356669,25.0745626 17.3030816,24.8788125 18.1174365,24.96825 L18.1174365,24.9631876 C18.2139401,24.9800625 18.3121368,24.9969375 18.4120264,25.0036875 C19.1129475,25.0644375 19.839264,24.8788125 20.4538396,24.4231875 C20.9956142,24.0181875 21.3697773,23.466375 21.5593984,22.858875 C21.6152689,22.68 21.654209,22.4994375 21.6779116,22.3155001 L21.6812977,22.318875 C21.7320891,22.0674376 21.8133553,21.80925 21.9267893,21.5476875 C22.3077246,20.6634376 22.9612402,19.936125 23.6706265,19.517625 L23.6655473,19.51425 C24.3918639,19.1615625 24.9776577,18.5152501 25.246852,17.6731875 C25.5143533,16.8294375 25.4110775,15.9519375 25.026756,15.2296875 Z" id="Path"></path>
                        </g>
                        <g id="noun_delivery_3704663" transform="translate(2.212381, 8.970532)" fill="#FFFFFF">
                            <path d="M5.36044757,7.22408856 C6.1692207,7.22408856 6.82949285,7.88438946 6.82949285,8.69313384 C6.82949285,9.50190696 6.1692207,10.1582742 5.36044757,10.1582742 C4.55170318,10.1582742 3.8953359,9.50190696 3.8953359,8.69313384 C3.8953359,7.88438946 4.55170318,7.22408856 5.36044757,7.22408856 Z M15.6710989,7.22408856 C16.479872,7.22408856 17.1362394,7.88438946 17.1362394,8.69313384 C17.1362394,9.50190696 16.479872,10.1582742 15.6710989,10.1582742 C14.8623545,10.1582742 14.2059585,9.50190696 14.2059585,8.69313384 C14.2059585,7.88438946 14.8623545,7.22408856 15.6710989,7.22408856 Z M14.3310014,0 C14.4443008,0 14.5576002,0.0508211227 14.631822,0.140691164 C14.7060437,0.230532511 14.7334067,0.351641752 14.7138823,0.464941183 L14.7138823,0.464941183 L14.4950931,1.59018326 L17.6128952,1.59018326 C17.7613387,1.59018326 17.8980961,1.67614844 17.9645369,1.80897236 L17.9645369,1.80897236 L19.4960605,4.95410863 C19.5312333,5.032264 19.542948,5.11822918 19.5273285,5.20026071 L19.5273285,5.20026071 L18.9178486,8.37666487 C18.8826759,8.56030992 18.7185841,8.69313384 18.5349391,8.69313384 L18.5349391,8.69313384 L17.9176494,8.69313384 C17.9176494,7.45071612 16.9096117,6.44267838 15.6710989,6.44267838 C14.4325574,6.44267838 13.4245771,7.45071612 13.4245771,8.69313384 L13.4245771,8.69313384 L7.61090303,8.69313384 C7.61090303,7.45071612 6.60289402,6.44267838 5.36044762,6.44267838 C4.1219348,6.44267838 3.11392582,7.45071612 3.11392582,8.69313384 L3.11392582,8.69313384 L2.32861078,8.69313384 C2.21140644,8.69313384 2.10198317,8.63846519 2.02776141,8.54859516 C1.95351093,8.4587251 1.92227178,8.34152077 1.94572987,8.22819261 L1.94572987,8.22819261 L2.28953312,6.43489726 L3.3209715,6.43489726 C3.96565281,6.43489726 4.49310105,5.90742034 4.49310105,5.26279645 C4.49310105,5.20026071 4.48919614,5.13384875 4.47748146,5.07524657 C5.05962699,5.0088346 5.51285344,4.51265427 5.51285344,3.91486044 C5.51285344,3.85235337 5.50891981,3.78591267 5.49720513,3.72733924 C6.07935066,3.66089858 6.53257711,3.16081333 6.53257711,2.56301949 C6.53257711,1.91836693 6.00510013,1.39091869 5.36044757,1.39091869 L5.36044757,1.39091869 L3.2584931,1.39091869 L3.46553882,0.316468949 C3.50071158,0.132852656 3.66480344,0 3.85235333,0 L3.85235333,0 Z M3.3209715,4.87207714 C3.53588438,4.87207714 3.71169091,5.04791237 3.71169091,5.26278221 C3.71169091,5.47768074 3.53588438,5.65348727 3.3209715,5.65348727 L3.3209715,5.65348727 L0.390719414,5.65348727 C0.175835224,5.65348727 0,5.47768074 0,5.26278221 C0,5.04791237 0.175835224,4.87207714 0.390719414,4.87207714 L0.390719414,4.87207714 Z M17.370648,2.37159344 L16.1516597,2.37159344 L15.5617043,5.44250793 L18.6873163,5.44250793 L18.7342036,5.18073628 L17.370648,2.37159344 Z M4.34072391,3.52416975 C4.5556081,3.52416975 4.73144332,3.69607137 4.73144332,3.91486049 C4.73144332,4.12974467 4.5556081,4.30555121 4.34072391,4.30555121 L4.34072391,4.30555121 L1.41047182,4.30555121 C1.19555894,4.30555121 1.01975241,4.12974467 1.01975241,3.91486049 C1.01975241,3.69607137 1.19555889,3.52416975 1.41047182,3.52416975 L1.41047182,3.52416975 Z M5.36044757,2.17232883 C5.57926536,2.17232883 5.75116698,2.34813535 5.75116698,2.56301955 C5.75116698,2.77793243 5.57926541,2.95371026 5.36044757,2.95371026 L5.36044757,2.95371026 L2.43019548,2.95371026 C2.2153113,2.95371026 2.03950477,2.77793243 2.03950477,2.56301955 C2.03950477,2.34813535 2.2153113,2.17232883 2.43019548,2.17232883 L2.43019548,2.17232883 Z" id="Combined-Shape"></path>
                        </g>
                    </g>
                </g>
            </g>
            <path d="M33.6727671,18.7708333 L33.6727671,14.2879167 L37.7692255,14.2879167 L37.7692255,18.7708333 L39.5623921,18.7708333 L39.5623921,8.66108333 L37.7692255,8.66108333 L37.7692255,12.726625 L33.6727671,12.726625 L33.6727671,8.66108333 L31.8796005,8.66108333 L31.8796005,18.7708333 L33.6727671,18.7708333 Z M43.7516005,18.7708333 L43.7516005,11.1807917 L41.9738921,11.1807917 L41.9738921,18.7708333 L43.7516005,18.7708333 Z M51.3571005,18.7708333 L51.3571005,17.3486667 L47.6625588,17.3486667 L51.2334338,12.12375 L51.2334338,11.1807917 L45.8230171,11.1807917 L45.8230171,12.5875 L49.0074338,12.5875 L45.4211005,17.8124167 L45.4211005,18.7708333 L51.3571005,18.7708333 Z M54.6033505,18.9563333 C54.9949616,18.9563333 55.309281,18.9048055 55.5463088,18.80175 L55.5463088,18.80175 L55.3144338,17.4723333 C55.242295,17.4929445 55.1881908,17.50325 55.1521213,17.50325 L55.1521213,17.50325 L55.0361838,17.50325 C54.9434338,17.50325 54.8558366,17.4594514 54.7733921,17.3718542 C54.6909477,17.284257 54.6497255,17.13225 54.6497255,16.9158333 L54.6497255,16.9158333 L54.6497255,7.85725 L52.8720171,7.85725 L52.8720171,16.8230833 C52.8720171,17.4826389 53.0008366,18.0030695 53.2584755,18.384375 C53.5161143,18.7656805 53.964406,18.9563333 54.6033505,18.9563333 Z M58.8389338,18.7708333 L58.8389338,11.1807917 L57.0612255,11.1807917 L57.0612255,18.7708333 L58.8389338,18.7708333 Z M67.3101005,18.9563333 C67.876906,18.9563333 68.3844546,18.8764653 68.8327463,18.7167292 C69.281038,18.556993 69.6623435,18.3405764 69.976663,18.0674792 C70.2909825,17.794382 70.5305866,17.4774861 70.6954755,17.1167917 C70.8603643,16.7560972 70.9428088,16.3696389 70.9428088,15.9574167 C70.9428088,15.5864167 70.891281,15.2592153 70.7882255,14.9758125 C70.68517,14.6924097 70.5434685,14.4425 70.3631213,14.2260833 C70.1827741,14.0096667 69.9689338,13.8190139 69.7216005,13.654125 C69.4742671,13.4892361 69.20117,13.3449583 68.9023088,13.2212917 L68.9023088,13.2212917 L67.5265171,12.6493333 C67.320406,12.5668889 67.1194477,12.4818681 66.9236421,12.3942708 C66.7278366,12.3066736 66.5552185,12.2087708 66.405788,12.1005625 C66.2563575,11.9923542 66.1378435,11.8686875 66.0502463,11.7295625 C65.9626491,11.5904375 65.9188505,11.4229722 65.9188505,11.2271667 C65.9188505,10.8561667 66.0631283,10.5650347 66.3516838,10.3537708 C66.6402393,10.1425069 67.0266977,10.036875 67.5110588,10.036875 C67.9438921,10.036875 68.3355033,10.1141667 68.6858921,10.26875 C69.036281,10.4233333 69.3763643,10.6345972 69.7061421,10.9025417 L69.7061421,10.9025417 L70.6181838,9.758625 C70.2265727,9.36701389 69.75767,9.05527083 69.2114755,8.82339583 C68.665281,8.59152083 68.0984755,8.47558333 67.5110588,8.47558333 C67.0163921,8.47558333 66.5603713,8.54772222 66.1429963,8.692 C65.7256213,8.83627778 65.3675033,9.03723611 65.0686421,9.294875 C64.769781,9.55251389 64.5353296,9.85395139 64.365288,10.1991875 C64.1952463,10.5444236 64.1102255,10.918 64.1102255,11.3199167 C64.1102255,11.6909167 64.1694825,12.0206944 64.2879963,12.30925 C64.4065102,12.5978056 64.56367,12.8502917 64.7594755,13.0667083 C64.955281,13.283125 65.1742741,13.468625 65.4164546,13.6232083 C65.6586352,13.7777917 65.9033921,13.9066111 66.1507255,14.0096667 L66.1507255,14.0096667 L67.5419755,14.6125417 C67.7686977,14.7052917 67.9773852,14.7980417 68.168038,14.8907917 C68.3586908,14.9835417 68.5235796,15.0840208 68.6627046,15.1922292 C68.8018296,15.3004375 68.910038,15.4266805 68.9873296,15.5709583 C69.0646213,15.7152361 69.1032671,15.8904305 69.1032671,16.0965417 C69.1032671,16.4881528 68.9538366,16.8024722 68.6549755,17.0395 C68.3561143,17.2765278 67.9181283,17.3950417 67.3410171,17.3950417 C66.8772671,17.3950417 66.4135171,17.2894097 65.9497671,17.0781458 C65.4860171,16.866882 65.073795,16.5912083 64.7131005,16.251125 L64.7131005,16.251125 L63.6619338,17.4723333 C64.146295,17.9463889 64.7053713,18.3122361 65.339163,18.569875 C65.9729546,18.8275139 66.6299338,18.9563333 67.3101005,18.9563333 Z M74.4673088,18.9563333 C74.9207533,18.9563333 75.3407046,18.8584305 75.727163,18.662625 C76.1136213,18.4668195 76.4768921,18.2246389 76.8169755,17.9360833 L76.8169755,17.9360833 L76.8788088,17.9360833 L77.0024755,18.7708333 L78.4710171,18.7708333 L78.4710171,14.2724583 C78.4710171,13.2109861 78.2365658,12.3994236 77.767663,11.8377708 C77.2987602,11.2761181 76.5902533,10.9952917 75.6421421,10.9952917 C75.0341143,10.9952917 74.4673088,11.0931944 73.9417255,11.289 C73.4161421,11.4848056 72.9420866,11.7166806 72.5195588,11.984625 L72.5195588,11.984625 L73.1688088,13.1749167 C73.5088921,12.9688056 73.8567046,12.7936111 74.2122463,12.6493333 C74.567788,12.5050556 74.9310588,12.4329167 75.3020588,12.4329167 C75.5596977,12.4329167 75.7761143,12.4715625 75.9513088,12.5488542 C76.1265033,12.6261458 76.2682046,12.7343542 76.376413,12.8734792 C76.4846213,13.0126042 76.561913,13.1723403 76.608288,13.3526875 C76.654663,13.5330347 76.6830033,13.7211111 76.6933088,13.9169167 C75.9100866,13.9993611 75.2376491,14.117875 74.6759963,14.2724583 C74.1143435,14.4270417 73.6505935,14.6176945 73.2847463,14.8444167 C72.9188991,15.0711389 72.6509546,15.3416597 72.480913,15.6559792 C72.3108713,15.9702986 72.2258505,16.3284167 72.2258505,16.7303333 C72.2258505,17.4001945 72.4319616,17.9386597 72.8441838,18.3457292 C73.256406,18.7527986 73.7974477,18.9563333 74.4673088,18.9563333 Z M75.0392671,17.5650833 C74.719795,17.5650833 74.4570033,17.4877917 74.2508921,17.3332083 C74.044781,17.178625 73.9417255,16.9312917 73.9417255,16.5912083 C73.9417255,16.4057083 73.9881005,16.2305139 74.0808505,16.065625 C74.1736005,15.9007361 74.3281838,15.753882 74.5446005,15.6250625 C74.7610171,15.496243 75.04442,15.3803055 75.3948088,15.27725 C75.7451977,15.1741945 76.178031,15.09175 76.6933088,15.0299167 L76.6933088,15.0299167 L76.6933088,16.7303333 C76.4047533,16.9982778 76.1342325,17.2043889 75.8817463,17.3486667 C75.6292602,17.4929445 75.3484338,17.5650833 75.0392671,17.5650833 Z M83.0312255,18.9563333 C83.3300866,18.9563333 83.610913,18.927993 83.8737046,18.8713125 C84.1364963,18.814632 84.3709477,18.7502222 84.5770588,18.6780833 L84.5770588,18.6780833 L84.2678921,17.364125 C84.154531,17.4156528 84.028288,17.456875 83.889163,17.4877917 C83.750038,17.5187083 83.6134893,17.5341667 83.4795171,17.5341667 C82.7684338,17.5341667 82.4128921,17.0910278 82.4128921,16.20475 L82.4128921,16.20475 L82.4128921,12.5875 L84.3451838,12.5875 L84.3451838,11.1807917 L82.4128921,11.1807917 L82.4128921,9.109375 L80.9288921,9.109375 L80.7124755,11.1807917 L79.5376421,11.2580833 L79.5376421,12.5875 L80.6197255,12.5875 L80.6197255,16.20475 C80.6197255,16.6169722 80.6635241,16.9905486 80.7511213,17.3254792 C80.8387185,17.6604097 80.9778435,17.9489653 81.1684963,18.1911458 C81.3591491,18.4333264 81.6064825,18.6214028 81.9104963,18.755375 C82.2145102,18.8893472 82.5880866,18.9563333 83.0312255,18.9563333 Z M87.7151005,18.7708333 L87.7151005,11.1807917 L85.9373921,11.1807917 L85.9373921,18.7708333 L87.7151005,18.7708333 Z M93.1564338,18.9563333 C93.5892671,18.9563333 94.0195241,18.8790417 94.4472046,18.7244583 C94.8748852,18.569875 95.2690727,18.338 95.6297671,18.0288333 L95.6297671,18.0288333 L94.9032255,16.854 C94.6868088,17.0291945 94.4472046,17.1812014 94.184413,17.3100208 C93.9216213,17.4388403 93.640795,17.50325 93.3419338,17.50325 C92.7442116,17.50325 92.2572741,17.2739514 91.8811213,16.8153542 C91.5049685,16.356757 91.3168921,15.7461528 91.3168921,14.9835417 C91.3168921,14.210625 91.507545,13.5948681 91.8888505,13.1362708 C92.270156,12.6776736 92.7699755,12.448375 93.3883088,12.448375 C93.6253366,12.448375 93.8443296,12.4973264 94.045288,12.5952292 C94.2462463,12.6931319 94.449781,12.8296806 94.6558921,13.004875 L94.6558921,13.004875 L95.5215588,11.8455 C95.2433088,11.6084722 94.926413,11.4075139 94.5708713,11.242625 C94.2153296,11.0777361 93.7902255,10.9952917 93.2955588,10.9952917 C92.7905866,10.9952917 92.3088018,11.0854653 91.8502046,11.2658125 C91.3916075,11.4461597 90.9871143,11.706375 90.6367255,12.0464583 C90.2863366,12.3865417 90.0080866,12.8039167 89.8019755,13.2985833 C89.5958643,13.79325 89.4928088,14.3549028 89.4928088,14.9835417 C89.4928088,15.6121805 89.5855588,16.1738333 89.7710588,16.6685 C89.9565588,17.1631667 90.2141977,17.5805417 90.5439755,17.920625 C90.8737533,18.2607083 91.262788,18.5183472 91.7110796,18.6935417 C92.1593713,18.8687361 92.641156,18.9563333 93.1564338,18.9563333 Z M98.9069338,18.7708333 L98.9069338,11.1807917 L97.1292255,11.1807917 L97.1292255,18.7708333 L98.9069338,18.7708333 Z" id="path-1" fill="#0BC15C" fill-rule="nonzero"></path>
        </g>
    </g>
</svg>